0
SECTION
2
HEADER
9
$INSUNITS
70
4
9
$ACADVER
1
AC1014
9
$HANDSEED
5
FFFF
0
ENDSEC
0
SECTION
2
TABLES
0
TABLE
2
VPORT
5
8
100
AcDbSymbolTable
0
ENDTAB
0
TABLE
2
LTYPE
5
5
100
AcDbSymbolTable
0
LTYPE
5
14
100
AcDbSymbolTableRecord
100
AcDbLinetypeTableRecord
2
BYBLOCK
70
0
0
LTYPE
5
15
100
AcDbSymbolTableRecord
100
AcDbLinetypeTableRecord
2
BYLAYER
70
0
0
ENDTAB
0
TABLE
2
LAYER
5
2
100
AcDbSymbolTable
70
2
0
LAYER
5
50
100
AcDbSymbolTableRecord
100
AcDbLayerTableRecord
2
0
70
0
6
CONTINUOUS
0
ENDTAB
0
TABLE
2
STYLE
5
3
100
AcDbSymbolTable
70
1
0
STYLE
5
11
100
AcDbSymbolTableRecord
100
AcDbTextStyleTableRecord
2
STANDARD
70
0
0
ENDTAB
0
TABLE
2
VIEW
5
6
100
AcDbSymbolTable
70
0
0
ENDTAB
0
TABLE
2
UCS
5
7
100
AcDbSymbolTable
70
0
0
ENDTAB
0
TABLE
2
APPID
5
9
100
AcDbSymbolTable
70
2
0
APPID
5
12
100
AcDbSymbolTableRecord
100
AcDbRegAppTableRecord
2
ACAD
70
0
0
ENDTAB
0
TABLE
2
DIMSTYLE
5
A
100
AcDbSymbolTable
70
1
0
ENDTAB
0
TABLE
2
BLOCK_RECORD
5
1
100
AcDbSymbolTable
70
1
0
BLOCK_RECORD
5
1F
100
AcDbSymbolTableRecord
100
AcDbBlockTableRecord
2
*MODEL_SPACE
0
BLOCK_RECORD
5
1B
100
AcDbSymbolTableRecord
100
AcDbBlockTableRecord
2
*PAPER_SPACE
0
ENDTAB
0
ENDSEC
0
SECTION
2
BLOCKS
0
BLOCK
5
20
100
AcDbEntity
100
AcDbBlockBegin
2
*MODEL_SPACE
0
ENDBLK
5
21
100
AcDbEntity
100
AcDbBlockEnd
0
BLOCK
5
1C
100
AcDbEntity
100
AcDbBlockBegin
2
*PAPER_SPACE
0
ENDBLK
5
1D
100
AcDbEntity
100
AcDbBlockEnd
0
ENDSEC
0
SECTION
2
ENTITIES
0
LWPOLYLINE
5
100
100
AcDbEntity
8
0
100
AcDbPolyline
90
88
70
1
43
0.0
10
23.000000000000021
20
15.377223398316227
42
-0.080611571670535481
10
23.513167019494887
20
18.539501058484607
10
27.000000000000021
20
29.000000000000004
10
33.000000000000014
20
29.000000000000004
10
33.000000000000014
20
24.000000000000004
10
52.999999999999979
20
24.000000000000004
10
52.999999999999979
20
29.000000000000004
10
58.999999999999979
20
29.000000000000004
10
62.486832980505113
20
18.53950105848461
42
-0.080611571670533358
10
62.999999999999972
20
15.37722339831622
10
62.999999999999972
20
-9.9999999999999911
10
109.00000000000003
20
-9.9999999999999893
10
109.00000000000003
20
15.377223398316225
42
-0.08061157167053537
10
109.51316701949487
20
18.539501058484603
10
113
20
29.000000000000004
10
119.00000000000003
20
29.000000000000004
10
119.00000000000003
20
24.000000000000004
10
139
20
24.000000000000004
10
139
20
29.000000000000004
10
144.99999999999997
20
29.000000000000004
10
148.48683298050508
20
18.539501058484603
42
-0.080611571670538382
10
148.99999999999997
20
15.37722339831622
10
148.99999999999997
20
-9.9999999999999911
10
195.00000000000003
20
-9.9999999999999893
10
195
20
15.377223398316225
42
-0.080611571670535703
10
195.51316701949489
20
18.539501058484603
10
199.00000000000003
20
29.000000000000004
10
205
20
29.000000000000004
10
205
20
24.000000000000004
10
215
20
24.000000000000004
10
215
20
-28.000000000000007
10
205
20
-28.000000000000007
10
205
20
-33.000000000000007
10
195
20
-33.000000000000007
10
195
20
-23.000000327825543
10
190
20
-23.000000327825543
10
190
20
-33.000000000000007
10
182
20
-33.000000000000007
10
182
20
-28.000000000000007
10
162
20
-28.000000000000007
10
162
20
-33.000000000000007
10
153.99999999999997
20
-33.000000000000007
10
153.99999999999997
20
-23.000000327825543
10
149
20
-23.000000327825543
10
149
20
-33.000000000000007
10
139
20
-33.000000000000007
10
139
20
-28.000000000000007
10
119.00000000000003
20
-28.000000000000007
10
119.00000000000003
20
-33.000000000000007
10
109.00000000000003
20
-33.000000000000007
10
109.00000000000003
20
-23.000000327825543
10
104.00000000000003
20
-23.000000327825543
10
104.00000000000003
20
-33.000000000000007
10
96
20
-33.000000000000007
10
96
20
-28.000000000000007
10
76
20
-28.000000000000007
10
76
20
-33.000000000000007
10
67.999999999999972
20
-33.000000000000007
10
67.999999999999972
20
-23.000000327825543
10
62.999999999999979
20
-23.000000327825543
10
62.999999999999979
20
-33.000000000000007
10
52.999999999999979
20
-33.000000000000007
10
52.999999999999979
20
-28.000000000000007
10
33.000000000000014
20
-28.000000000000007
10
33.000000000000014
20
-33.000000000000007
10
23.000000000000014
20
-33.000000000000007
10
23.000000000000014
20
-23.000000327825543
10
18.000000000000021
20
-23.000000327825543
10
18.000000000000021
20
-33.000000000000007
10
10
20
-33.000000000000007
10
10
20
-28.000000000000007
10
-10
20
-28.000000000000007
10
-10
20
-33.000000000000007
10
-18.000000000000021
20
-33.000000000000007
10
-18.000000000000021
20
-23.000000327825543
10
-23.000000000000014
20
-23.000000327825543
10
-23.000000000000014
20
-33.000000000000007
10
-33.000000000000014
20
-33.000000000000007
10
-33.000000000000014
20
-28.000000000000007
10
-43.000000000000014
20
-28.000000000000007
10
-43.000000000000014
20
24.000000000000004
10
-33.000000000000014
20
24.000000000000004
10
-33.000000000000014
20
29.000000000000004
10
-27.000000000000021
20
29.000000000000004
10
-23.513167019494894
20
18.53950105848461
42
-0.080611571670533358
10
-23.000000000000028
20
15.37722339831622
10
-23.000000000000028
20
-9.9999999999999911
10
23.000000000000028
20
-9.9999999999999893
0
ENDSEC
0
SECTION
2
OBJECTS
0
DICTIONARY
5
C
100
AcDbDictionary
3
ACAD_GROUP
350
D
3
ACAD_MLINESTYLE
350
17
0
DICTIONARY
5
D
100
AcDbDictionary
0
DICTIONARY
5
1A
330
C
100
AcDbDictionary
0
DICTIONARY
5
17
100
AcDbDictionary
0
ENDSEC
0
EOF
