0
SECTION
2
HEADER
9
$INSUNITS
70
4
9
$ACADVER
1
AC1014
9
$HANDSEED
5
FFFF
0
ENDSEC
0
SECTION
2
TABLES
0
TABLE
2
VPORT
5
8
100
AcDbSymbolTable
0
ENDTAB
0
TABLE
2
LTYPE
5
5
100
AcDbSymbolTable
0
LTYPE
5
14
100
AcDbSymbolTableRecord
100
AcDbLinetypeTableRecord
2
BYBLOCK
70
0
0
LTYPE
5
15
100
AcDbSymbolTableRecord
100
AcDbLinetypeTableRecord
2
BYLAYER
70
0
0
ENDTAB
0
TABLE
2
LAYER
5
2
100
AcDbSymbolTable
70
2
0
LAYER
5
50
100
AcDbSymbolTableRecord
100
AcDbLayerTableRecord
2
0
70
0
6
CONTINUOUS
0
ENDTAB
0
TABLE
2
STYLE
5
3
100
AcDbSymbolTable
70
1
0
STYLE
5
11
100
AcDbSymbolTableRecord
100
AcDbTextStyleTableRecord
2
STANDARD
70
0
0
ENDTAB
0
TABLE
2
VIEW
5
6
100
AcDbSymbolTable
70
0
0
ENDTAB
0
TABLE
2
UCS
5
7
100
AcDbSymbolTable
70
0
0
ENDTAB
0
TABLE
2
APPID
5
9
100
AcDbSymbolTable
70
2
0
APPID
5
12
100
AcDbSymbolTableRecord
100
AcDbRegAppTableRecord
2
ACAD
70
0
0
ENDTAB
0
TABLE
2
DIMSTYLE
5
A
100
AcDbSymbolTable
70
1
0
ENDTAB
0
TABLE
2
BLOCK_RECORD
5
1
100
AcDbSymbolTable
70
1
0
BLOCK_RECORD
5
1F
100
AcDbSymbolTableRecord
100
AcDbBlockTableRecord
2
*MODEL_SPACE
0
BLOCK_RECORD
5
1B
100
AcDbSymbolTableRecord
100
AcDbBlockTableRecord
2
*PAPER_SPACE
0
ENDTAB
0
ENDSEC
0
SECTION
2
BLOCKS
0
BLOCK
5
20
100
AcDbEntity
100
AcDbBlockBegin
2
*MODEL_SPACE
0
ENDBLK
5
21
100
AcDbEntity
100
AcDbBlockEnd
0
BLOCK
5
1C
100
AcDbEntity
100
AcDbBlockBegin
2
*PAPER_SPACE
0
ENDBLK
5
1D
100
AcDbEntity
100
AcDbBlockEnd
0
ENDSEC
0
SECTION
2
ENTITIES
0
LWPOLYLINE
5
100
100
AcDbEntity
8
0
100
AcDbPolyline
90
12
70
1
43
0.0
10
-162
20
-12.950000000000202
10
-162
20
-17.950000000000202
10
-153.99999999999997
20
-17.950000000000202
10
-154
20
-22.950000000000202
10
-149
20
-22.950000000000202
10
-149
20
-17.950000000000202
10
-139
20
-17.950000000000202
10
-139
20
-12.950000000000202
10
-149
20
-12.950000000000204
10
-149
20
-9.9500000000002018
10
-154
20
-9.9500000000002036
10
-153.99999999999997
20
-12.950000000000204
0
LWPOLYLINE
5
101
100
AcDbEntity
8
0
100
AcDbPolyline
90
12
70
1
43
0.0
10
-205
20
-12.950000000000202
10
-205
20
-17.950000000000202
10
-195
20
-17.950000000000202
10
-195
20
-22.950000000000202
10
-190
20
-22.950000000000202
10
-190
20
-17.950000000000202
10
-182
20
-17.950000000000202
10
-182
20
-12.950000000000202
10
-190
20
-12.950000000000204
10
-190
20
-9.9500000000002018
10
-195
20
-9.9500000000002036
10
-195
20
-12.950000000000204
0
LWPOLYLINE
5
102
100
AcDbEntity
8
0
100
AcDbPolyline
90
12
70
1
43
0.0
10
-162
20
7.9499999999997968
10
-162
20
2.9499999999997972
10
-153.99999999999997
20
2.949999999999795
10
-154
20
-0.049999999999865707
10
-149
20
-0.049999999999865707
10
-149
20
2.949999999999795
10
-139
20
2.9499999999997972
10
-139
20
7.9499999999997968
10
-149
20
7.949999999999795
10
-148.99999999999997
20
32.500000000000007
10
-153.99999999999997
20
32.500000000000007
10
-153.99999999999997
20
7.949999999999795
0
LWPOLYLINE
5
103
100
AcDbEntity
8
0
100
AcDbPolyline
90
12
70
1
43
0.0
10
-205
20
7.9499999999997968
10
-205
20
2.9499999999997972
10
-195
20
2.949999999999795
10
-195
20
-0.049999999999865707
10
-190
20
-0.049999999999865707
10
-190
20
2.949999999999795
10
-182
20
2.9499999999997972
10
-182
20
7.9499999999997968
10
-190
20
7.949999999999795
10
-189.99999999999997
20
32.500000000000007
10
-194.99999999999997
20
32.500000000000007
10
-195
20
7.949999999999795
0
LWPOLYLINE
5
104
100
AcDbEntity
8
0
100
AcDbPolyline
90
12
70
1
43
0.0
10
-76
20
-12.950000000000202
10
-76
20
-17.950000000000202
10
-67.999999999999972
20
-17.950000000000202
10
-67.999999999999986
20
-22.950000000000202
10
-62.999999999999986
20
-22.950000000000202
10
-62.999999999999986
20
-17.950000000000202
10
-52.999999999999979
20
-17.950000000000202
10
-52.999999999999979
20
-12.950000000000202
10
-62.999999999999979
20
-12.950000000000204
10
-62.999999999999979
20
-9.9500000000002018
10
-67.999999999999986
20
-9.9500000000002036
10
-67.999999999999972
20
-12.950000000000204
0
LWPOLYLINE
5
105
100
AcDbEntity
8
0
100
AcDbPolyline
90
12
70
1
43
0.0
10
-119.00000000000003
20
-12.950000000000202
10
-119.00000000000003
20
-17.950000000000202
10
-109.00000000000003
20
-17.950000000000202
10
-108.99999999999999
20
-22.950000000000202
10
-103.99999999999999
20
-22.950000000000202
10
-104.00000000000003
20
-17.950000000000202
10
-96
20
-17.950000000000202
10
-96
20
-12.950000000000202
10
-104.00000000000003
20
-12.950000000000204
10
-103.99999999999999
20
-9.9500000000002018
10
-108.99999999999999
20
-9.9500000000002036
10
-109.00000000000003
20
-12.950000000000204
0
LWPOLYLINE
5
106
100
AcDbEntity
8
0
100
AcDbPolyline
90
12
70
1
43
0.0
10
-76
20
7.9499999999997968
10
-76
20
2.9499999999997972
10
-67.999999999999972
20
2.949999999999795
10
-67.999999999999986
20
-0.049999999999865707
10
-62.999999999999979
20
-0.049999999999865707
10
-62.999999999999979
20
2.949999999999795
10
-52.999999999999979
20
2.9499999999997972
10
-52.999999999999979
20
7.9499999999997968
10
-62.999999999999979
20
7.949999999999795
10
-62.999999999999972
20
32.500000000000007
10
-67.999999999999972
20
32.500000000000007
10
-67.999999999999972
20
7.949999999999795
0
LWPOLYLINE
5
107
100
AcDbEntity
8
0
100
AcDbPolyline
90
12
70
1
43
0.0
10
-119.00000000000003
20
7.9499999999997968
10
-119.00000000000003
20
2.9499999999997972
10
-109.00000000000003
20
2.949999999999795
10
-108.99999999999999
20
-0.049999999999865707
10
-103.99999999999999
20
-0.049999999999865707
10
-103.99999999999999
20
2.949999999999795
10
-96
20
2.9499999999997972
10
-96
20
7.9499999999997968
10
-103.99999999999999
20
7.949999999999795
10
-103.99999999999999
20
32.500000000000007
10
-108.99999999999999
20
32.500000000000007
10
-109.00000000000003
20
7.949999999999795
0
LWPOLYLINE
5
108
100
AcDbEntity
8
0
100
AcDbPolyline
90
12
70
1
43
0.0
10
10
20
-12.950000000000202
10
10
20
-17.950000000000202
10
18.000000000000021
20
-17.950000000000202
10
18.000000000000011
20
-22.950000000000202
10
23.000000000000011
20
-22.950000000000202
10
23.000000000000011
20
-17.950000000000202
10
33.000000000000014
20
-17.950000000000202
10
33.000000000000014
20
-12.950000000000202
10
23.000000000000014
20
-12.950000000000204
10
23.000000000000014
20
-9.9500000000002018
10
18.000000000000014
20
-9.9500000000002036
10
18.000000000000021
20
-12.950000000000204
0
LWPOLYLINE
5
109
100
AcDbEntity
8
0
100
AcDbPolyline
90
12
70
1
43
0.0
10
-33.000000000000014
20
-12.950000000000202
10
-33.000000000000014
20
-17.950000000000202
10
-23.000000000000014
20
-17.950000000000202
10
-22.999999999999993
20
-22.950000000000202
10
-17.999999999999993
20
-22.950000000000202
10
-18.000000000000021
20
-17.950000000000202
10
-10
20
-17.950000000000202
10
-10
20
-12.950000000000202
10
-18.000000000000021
20
-12.950000000000204
10
-17.999999999999989
20
-9.9500000000002018
10
-22.999999999999989
20
-9.9500000000002036
10
-23.000000000000014
20
-12.950000000000204
0
LWPOLYLINE
5
110
100
AcDbEntity
8
0
100
AcDbPolyline
90
12
70
1
43
0.0
10
10
20
7.9499999999997968
10
10
20
2.9499999999997972
10
18.000000000000021
20
2.949999999999795
10
18.000000000000014
20
-0.049999999999865707
10
23.000000000000014
20
-0.049999999999865707
10
23.000000000000014
20
2.949999999999795
10
33.000000000000014
20
2.9499999999997972
10
33.000000000000014
20
7.9499999999997968
10
23.000000000000014
20
7.949999999999795
10
23.000000000000021
20
32.500000000000007
10
18.000000000000021
20
32.500000000000007
10
18.000000000000021
20
7.949999999999795
0
LWPOLYLINE
5
111
100
AcDbEntity
8
0
100
AcDbPolyline
90
12
70
1
43
0.0
10
-33.000000000000014
20
7.9499999999997968
10
-33.000000000000014
20
2.9499999999997972
10
-23.000000000000014
20
2.949999999999795
10
-22.999999999999989
20
-0.049999999999865707
10
-17.999999999999989
20
-0.049999999999865707
10
-17.999999999999989
20
2.949999999999795
10
-10
20
2.9499999999997972
10
-10
20
7.9499999999997968
10
-17.999999999999989
20
7.949999999999795
10
-17.999999999999986
20
32.500000000000007
10
-22.999999999999986
20
32.500000000000007
10
-23.000000000000014
20
7.949999999999795
0
LWPOLYLINE
5
112
100
AcDbEntity
8
0
100
AcDbPolyline
90
4
70
1
43
0.0
10
43.000000000000007
20
-37.950000000000159
10
-215
20
-37.950000000000159
10
-215
20
47.500000000000057
10
43.000000000000014
20
47.500000000000057
0
ENDSEC
0
SECTION
2
OBJECTS
0
DICTIONARY
5
C
100
AcDbDictionary
3
ACAD_GROUP
350
D
3
ACAD_MLINESTYLE
350
17
0
DICTIONARY
5
D
100
AcDbDictionary
0
DICTIONARY
5
1A
330
C
100
AcDbDictionary
0
DICTIONARY
5
17
100
AcDbDictionary
0
ENDSEC
0
EOF
